<?xml version="1.0" encoding="utf-8"?>
<svg xmlns="http://www.w3.org/2000/svg" xmlns:xlink="http://www.w3.org/1999/xlink" width="600" height="400" viewBox="0 0 2400 1600">
<defs>
  <clipPath id="clip9800">
    <rect x="0" y="0" width="2400" height="1600"/>
  </clipPath>
</defs>
<polygon clip-path="url(#clip9800)" points="
0,1600 2400,1600 2400,0 0,0 
  " fill="#ffffff" fill-rule="evenodd" fill-opacity="1"/>
<defs>
  <clipPath id="clip9801">
    <rect x="480" y="0" width="1681" height="1600"/>
  </clipPath>
</defs>
<polygon clip-path="url(#clip9800)" points="
257.183,1383.22 2352.76,1383.22 2352.76,47.2441 257.183,47.2441 
  " fill="#ffffff" fill-rule="evenodd" fill-opacity="1"/>
<defs>
  <clipPath id="clip9802">
    <rect x="257" y="47" width="2097" height="1337"/>
  </clipPath>
</defs>
<polyline clip-path="url(#clip9802)" style="stroke:#000000; stroke-width:2; stroke-opacity:0.1; fill:none" points="
  315.676,1383.22 315.676,47.2441 
  "/>
<polyline clip-path="url(#clip9802)" style="stroke:#000000; stroke-width:2; stroke-opacity:0.1; fill:none" points="
  723.632,1383.22 723.632,47.2441 
  "/>
<polyline clip-path="url(#clip9802)" style="stroke:#000000; stroke-width:2; stroke-opacity:0.1; fill:none" points="
  1131.59,1383.22 1131.59,47.2441 
  "/>
<polyline clip-path="url(#clip9802)" style="stroke:#000000; stroke-width:2; stroke-opacity:0.1; fill:none" points="
  1539.54,1383.22 1539.54,47.2441 
  "/>
<polyline clip-path="url(#clip9802)" style="stroke:#000000; stroke-width:2; stroke-opacity:0.1; fill:none" points="
  1947.5,1383.22 1947.5,47.2441 
  "/>
<polyline clip-path="url(#clip9802)" style="stroke:#000000; stroke-width:2; stroke-opacity:0.1; fill:none" points="
  257.183,1242.71 2352.76,1242.71 
  "/>
<polyline clip-path="url(#clip9802)" style="stroke:#000000; stroke-width:2; stroke-opacity:0.1; fill:none" points="
  257.183,1055.99 2352.76,1055.99 
  "/>
<polyline clip-path="url(#clip9802)" style="stroke:#000000; stroke-width:2; stroke-opacity:0.1; fill:none" points="
  257.183,869.274 2352.76,869.274 
  "/>
<polyline clip-path="url(#clip9802)" style="stroke:#000000; stroke-width:2; stroke-opacity:0.1; fill:none" points="
  257.183,682.555 2352.76,682.555 
  "/>
<polyline clip-path="url(#clip9802)" style="stroke:#000000; stroke-width:2; stroke-opacity:0.1; fill:none" points="
  257.183,495.836 2352.76,495.836 
  "/>
<polyline clip-path="url(#clip9802)" style="stroke:#000000; stroke-width:2; stroke-opacity:0.1; fill:none" points="
  257.183,309.117 2352.76,309.117 
  "/>
<polyline clip-path="url(#clip9802)" style="stroke:#000000; stroke-width:2; stroke-opacity:0.1; fill:none" points="
  257.183,122.398 2352.76,122.398 
  "/>
<polyline clip-path="url(#clip9800)" style="stroke:#000000; stroke-width:4; stroke-opacity:1; fill:none" points="
  257.183,1383.22 2352.76,1383.22 
  "/>
<polyline clip-path="url(#clip9800)" style="stroke:#000000; stroke-width:4; stroke-opacity:1; fill:none" points="
  257.183,1383.22 257.183,47.2441 
  "/>
<polyline clip-path="url(#clip9800)" style="stroke:#000000; stroke-width:4; stroke-opacity:1; fill:none" points="
  315.676,1383.22 315.676,1363.18 
  "/>
<polyline clip-path="url(#clip9800)" style="stroke:#000000; stroke-width:4; stroke-opacity:1; fill:none" points="
  723.632,1383.22 723.632,1363.18 
  "/>
<polyline clip-path="url(#clip9800)" style="stroke:#000000; stroke-width:4; stroke-opacity:1; fill:none" points="
  1131.59,1383.22 1131.59,1363.18 
  "/>
<polyline clip-path="url(#clip9800)" style="stroke:#000000; stroke-width:4; stroke-opacity:1; fill:none" points="
  1539.54,1383.22 1539.54,1363.18 
  "/>
<polyline clip-path="url(#clip9800)" style="stroke:#000000; stroke-width:4; stroke-opacity:1; fill:none" points="
  1947.5,1383.22 1947.5,1363.18 
  "/>
<polyline clip-path="url(#clip9800)" style="stroke:#000000; stroke-width:4; stroke-opacity:1; fill:none" points="
  257.183,1242.71 288.617,1242.71 
  "/>
<polyline clip-path="url(#clip9800)" style="stroke:#000000; stroke-width:4; stroke-opacity:1; fill:none" points="
  257.183,1055.99 288.617,1055.99 
  "/>
<polyline clip-path="url(#clip9800)" style="stroke:#000000; stroke-width:4; stroke-opacity:1; fill:none" points="
  257.183,869.274 288.617,869.274 
  "/>
<polyline clip-path="url(#clip9800)" style="stroke:#000000; stroke-width:4; stroke-opacity:1; fill:none" points="
  257.183,682.555 288.617,682.555 
  "/>
<polyline clip-path="url(#clip9800)" style="stroke:#000000; stroke-width:4; stroke-opacity:1; fill:none" points="
  257.183,495.836 288.617,495.836 
  "/>
<polyline clip-path="url(#clip9800)" style="stroke:#000000; stroke-width:4; stroke-opacity:1; fill:none" points="
  257.183,309.117 288.617,309.117 
  "/>
<polyline clip-path="url(#clip9800)" style="stroke:#000000; stroke-width:4; stroke-opacity:1; fill:none" points="
  257.183,122.398 288.617,122.398 
  "/>
<g clip-path="url(#clip9800)">
<text style="fill:#000000; fill-opacity:1; font-family:Arial,Helvetica Neue,Helvetica,sans-serif; font-size:48px; text-anchor:middle;" transform="rotate(0, 315.676, 1437.22)" x="315.676" y="1437.22">0</text>
</g>
<g clip-path="url(#clip9800)">
<text style="fill:#000000; fill-opacity:1; font-family:Arial,Helvetica Neue,Helvetica,sans-serif; font-size:48px; text-anchor:middle;" transform="rotate(0, 723.632, 1437.22)" x="723.632" y="1437.22">500</text>
</g>
<g clip-path="url(#clip9800)">
<text style="fill:#000000; fill-opacity:1; font-family:Arial,Helvetica Neue,Helvetica,sans-serif; font-size:48px; text-anchor:middle;" transform="rotate(0, 1131.59, 1437.22)" x="1131.59" y="1437.22">1000</text>
</g>
<g clip-path="url(#clip9800)">
<text style="fill:#000000; fill-opacity:1; font-family:Arial,Helvetica Neue,Helvetica,sans-serif; font-size:48px; text-anchor:middle;" transform="rotate(0, 1539.54, 1437.22)" x="1539.54" y="1437.22">1500</text>
</g>
<g clip-path="url(#clip9800)">
<text style="fill:#000000; fill-opacity:1; font-family:Arial,Helvetica Neue,Helvetica,sans-serif; font-size:48px; text-anchor:middle;" transform="rotate(0, 1947.5, 1437.22)" x="1947.5" y="1437.22">2000</text>
</g>
<g clip-path="url(#clip9800)">
<text style="fill:#000000; fill-opacity:1; font-family:Arial,Helvetica Neue,Helvetica,sans-serif; font-size:48px; text-anchor:end;" transform="rotate(0, 233.183, 1260.21)" x="233.183" y="1260.21">10</text>
</g>
<g clip-path="url(#clip9800)">
<text style="fill:#000000; fill-opacity:1; font-family:Arial,Helvetica Neue,Helvetica,sans-serif; font-size:48px; text-anchor:end;" transform="rotate(0, 233.183, 1073.49)" x="233.183" y="1073.49">20</text>
</g>
<g clip-path="url(#clip9800)">
<text style="fill:#000000; fill-opacity:1; font-family:Arial,Helvetica Neue,Helvetica,sans-serif; font-size:48px; text-anchor:end;" transform="rotate(0, 233.183, 886.774)" x="233.183" y="886.774">30</text>
</g>
<g clip-path="url(#clip9800)">
<text style="fill:#000000; fill-opacity:1; font-family:Arial,Helvetica Neue,Helvetica,sans-serif; font-size:48px; text-anchor:end;" transform="rotate(0, 233.183, 700.055)" x="233.183" y="700.055">40</text>
</g>
<g clip-path="url(#clip9800)">
<text style="fill:#000000; fill-opacity:1; font-family:Arial,Helvetica Neue,Helvetica,sans-serif; font-size:48px; text-anchor:end;" transform="rotate(0, 233.183, 513.336)" x="233.183" y="513.336">50</text>
</g>
<g clip-path="url(#clip9800)">
<text style="fill:#000000; fill-opacity:1; font-family:Arial,Helvetica Neue,Helvetica,sans-serif; font-size:48px; text-anchor:end;" transform="rotate(0, 233.183, 326.617)" x="233.183" y="326.617">60</text>
</g>
<g clip-path="url(#clip9800)">
<text style="fill:#000000; fill-opacity:1; font-family:Arial,Helvetica Neue,Helvetica,sans-serif; font-size:48px; text-anchor:end;" transform="rotate(0, 233.183, 139.898)" x="233.183" y="139.898">70</text>
</g>
<g clip-path="url(#clip9800)">
<text style="fill:#000000; fill-opacity:1; font-family:Arial,Helvetica Neue,Helvetica,sans-serif; font-size:66px; text-anchor:middle;" transform="rotate(0, 1304.97, 1517.08)" x="1304.97" y="1517.08">timestep</text>
</g>
<g clip-path="url(#clip9800)">
<text style="fill:#000000; fill-opacity:1; font-family:Arial,Helvetica Neue,Helvetica,sans-serif; font-size:66px; text-anchor:middle;" transform="rotate(-90, 144.097, 715.231)" x="144.097" y="715.231">power consumption (kW)</text>
</g>
<polyline clip-path="url(#clip9802)" style="stroke:#009af9; stroke-width:4; stroke-opacity:1; fill:none" points="
  316.492,1016.78 317.308,1190.43 318.124,1341.67 318.94,1343.54 319.756,1343.54 320.572,1013.05 321.388,635.875 322.203,701.227 323.019,716.164 323.835,678.821 
  324.651,604.133 325.467,662.016 326.283,673.219 327.099,682.555 327.915,699.36 328.731,699.36 329.547,734.836 330.363,667.618 331.179,680.688 331.994,617.203 
  332.81,740.438 333.626,805.79 334.442,1298.73 335.258,1306.2 336.074,1014.91 336.89,1001.84 337.706,1205.37 338.522,1341.67 339.338,1345.41 340.154,1007.45 
  340.969,634.008 341.785,628.407 342.601,693.758 343.417,577.993 344.233,650.813 345.049,652.68 345.865,691.891 346.681,734.836 347.497,680.688 348.313,738.571 
  349.129,686.289 349.944,680.688 350.76,592.93 351.576,602.266 352.392,742.305 353.208,846.868 354.024,1332.34 354.84,1145.62 355.656,1001.84 356.472,1044.79 
  357.288,1339.81 358.104,1339.81 358.92,1339.81 359.735,1007.45 360.551,583.594 361.367,600.399 362.183,686.289 362.999,622.805 363.815,639.61 364.631,606 
  365.447,721.766 366.263,693.758 367.079,760.977 367.895,716.164 368.71,734.836 369.526,678.821 370.342,663.883 371.158,718.032 371.974,712.43 372.79,1171.76 
  373.606,1252.05 374.422,1018.65 375.238,1055.99 376.054,1214.7 376.87,1341.67 377.686,1341.67 378.501,1339.81 379.317,1003.71 380.133,568.657 380.949,701.227 
  381.765,718.032 382.581,613.469 383.397,549.985 384.213,620.938 385.029,669.485 385.845,732.969 386.661,701.227 387.476,747.907 388.292,706.829 389.108,710.563 
  389.924,676.954 390.74,770.313 391.556,1149.35 392.372,1334.2 393.188,1330.47 394.004,1339.81 394.82,1070.93 395.636,1160.56 396.451,1341.67 397.267,1341.67 
  398.083,1339.81 398.899,1339.81 399.715,955.165 400.531,609.735 401.347,656.414 402.163,520.11 402.979,499.571 403.795,632.141 404.611,665.75 405.427,718.032 
  406.242,617.203 407.058,675.086 407.874,656.414 408.69,863.672 409.506,1209.1 410.322,1334.2 411.138,1336.07 411.954,1336.07 412.77,1332.34 413.586,1339.81 
  414.402,1253.91 415.217,1341.67 416.033,1339.81 416.849,1024.25 417.665,1192.3 418.481,1337.94 419.297,1336.07 420.113,1302.46 420.929,841.266 421.745,693.758 
  422.561,574.258 423.377,686.289 424.192,704.961 425.008,658.282 425.824,671.352 426.64,671.352 427.456,678.821 428.272,906.618 429.088,1250.18 429.904,1332.34 
  430.72,1336.07 431.536,1334.2 432.352,1332.34 433.168,1095.2 433.983,1054.13 434.799,1341.67 435.615,1339.81 436.431,1341.67 437.247,1337.94 438.063,1057.86 
  438.879,747.907 439.695,751.641 440.511,736.704 441.327,594.797 442.143,596.664 442.958,611.602 443.774,729.235 444.59,693.758 445.406,658.282 446.222,734.836 
  447.038,688.157 447.854,609.735 448.67,566.789 449.486,495.836 450.302,630.274 451.118,887.946 451.934,1330.47 452.749,1220.31 453.565,1014.91 454.381,1136.28 
  455.197,1339.81 456.013,1337.94 456.829,1315.53 457.645,1089.6 458.461,738.571 459.277,650.813 460.093,725.5 460.909,594.797 461.724,549.985 462.54,548.117 
  463.356,658.282 464.172,690.024 464.988,665.75 465.804,701.227 466.62,598.532 467.436,632.141 468.252,527.578 469.068,564.922 469.884,609.735 470.699,835.665 
  471.515,1330.47 472.331,1259.52 473.147,1029.85 473.963,1113.88 474.779,1339.81 475.595,1339.81 476.411,1337.94 477.227,1207.24 478.043,703.094 478.859,682.555 
  479.675,684.422 480.49,581.727 481.306,581.727 482.122,546.25 482.938,628.407 483.754,632.141 484.57,574.258 485.386,555.586 486.202,663.883 487.018,645.211 
  487.834,632.141 488.65,615.336 489.465,688.157 490.281,843.133 491.097,1332.34 491.913,1276.32 492.729,1100.81 493.545,1078.4 494.361,1341.67 495.177,1339.81 
  495.993,1337.94 496.809,1076.53 497.625,731.102 498.441,721.766 499.256,665.75 500.072,600.399 500.888,624.672 501.704,620.938 502.52,660.149 503.336,701.227 
  504.152,615.336 504.968,596.664 505.784,680.688 506.6,650.813 507.416,561.188 508.231,671.352 509.047,701.227 509.863,1110.14 510.679,1330.47 511.495,1337.94 
  512.311,1268.85 513.127,1341.67 513.943,1332.34 514.759,1014.91 515.575,1166.16 516.391,1013.05 517.206,607.868 518.022,606 518.838,699.36 519.654,576.125 
  520.47,589.196 521.286,632.141 522.102,645.211 522.918,734.836 523.734,652.68 524.55,594.797 525.366,688.157 526.182,667.618 526.997,673.219 527.813,732.969 
  528.629,1138.15 529.445,1330.47 530.261,1334.2 531.077,1272.59 531.893,1029.85 532.709,1018.65 533.525,1341.67 534.341,1341.67 535.157,1341.67 535.972,1339.81 
  536.788,990.641 537.604,613.469 538.42,559.321 539.236,490.235 540.052,527.578 540.868,639.61 541.684,686.289 542.5,654.547 543.316,626.539 544.132,574.258 
  544.947,684.422 545.763,822.594 546.579,1218.44 547.395,1332.34 548.211,1332.34 549.027,1334.2 549.843,1332.34 550.659,1132.55 551.475,1024.25 552.291,1166.16 
  553.107,1341.67 553.923,1341.67 554.738,1341.67 555.554,1337.94 556.37,1336.07 557.186,1326.74 558.002,712.43 558.818,557.453 559.634,695.625 560.45,690.024 
  561.266,686.289 562.082,639.61 562.898,596.664 563.713,561.188 564.529,680.688 565.345,957.032 566.161,1250.18 566.977,1332.34 567.793,1332.34 568.609,1332.34 
  569.425,1332.34 570.241,1132.55 571.057,1037.32 571.873,1117.61 572.689,1337.94 573.504,1334.2 574.32,1337.94 575.136,1039.19 575.952,663.883 576.768,736.704 
  577.584,662.016 578.4,645.211 579.216,493.969 580.032,637.743 580.848,680.688 581.664,708.696 582.479,708.696 583.295,706.829 584.111,699.36 584.927,647.078 
  585.743,572.391 586.559,587.328 587.375,686.289 588.191,865.54 589.007,1328.6 589.823,1229.64 590.639,1102.67 591.454,1065.33 592.27,1337.94 593.086,1336.07 
  593.902,1336.07 594.718,1014.91 595.534,606 596.35,615.336 597.166,663.883 597.982,619.071 598.798,594.797 599.614,620.938 600.43,708.696 601.245,680.688 
  602.061,669.485 602.877,693.758 603.693,697.493 604.509,645.211 605.325,652.68 606.141,667.618 606.957,714.297 607.773,835.665 608.589,1332.34 609.405,1339.81 
  610.22,1257.65 611.036,1343.54 611.852,1136.28 612.668,1005.58 613.484,1337.94 614.3,1029.85 615.116,652.68 615.932,622.805 616.748,695.625 617.564,507.039 
  618.38,606 619.196,639.61 620.011,678.821 620.827,712.43 621.643,663.883 622.459,734.836 623.275,682.555 624.091,686.289 624.907,602.266 625.723,706.829 
  626.539,747.907 627.355,843.133 628.171,1334.2 628.986,1177.36 629.802,1007.45 630.618,1018.65 631.434,1339.81 632.25,1343.54 633.066,1343.54 633.882,994.376 
  634.698,516.375 635.514,555.586 636.33,572.391 637.146,542.516 637.961,671.352 638.777,650.813 639.593,731.102 640.409,688.157 641.225,701.227 642.041,749.774 
  642.857,710.563 643.673,682.555 644.489,613.469 645.305,654.547 646.121,732.969 646.937,1153.09 647.752,1334.2 648.568,1112.01 649.384,1044.79 650.2,1089.6 
  651.016,1341.67 651.832,1341.67 652.648,1345.41 653.464,1001.84 654.28,508.907 655.096,574.258 655.912,665.75 656.727,648.946 657.543,525.711 658.359,626.539 
  659.175,667.618 659.991,734.836 660.807,690.024 661.623,695.625 662.439,729.235 663.255,716.164 664.071,680.688 664.887,760.977 665.702,1136.28 666.518,1332.34 
  667.334,1334.2 668.15,1337.94 668.966,1031.72 669.782,1035.45 670.598,1341.67 671.414,1339.81 672.23,1339.81 673.046,1339.81 673.862,990.641 674.678,607.868 
  675.493,645.211 676.309,540.649 677.125,529.446 677.941,652.68 678.757,660.149 679.573,723.633 680.389,686.289 681.205,671.352 682.021,701.227 682.837,858.071 
  683.653,1194.16 684.468,1336.07 685.284,1330.47 686.1,1334.2 686.916,1334.2 687.732,1175.49 688.548,1014.91 689.364,1106.41 690.18,1341.67 690.996,1339.81 
  691.812,1341.67 692.628,1341.67 693.444,1336.07 694.259,1328.6 695.075,766.579 695.891,592.93 696.707,662.016 697.523,693.758 698.339,759.11 699.155,680.688 
  699.971,697.493 700.787,680.688 701.603,708.696 702.419,940.227 703.234,1248.31 704.05,1330.47 704.866,1330.47 705.682,1334.2 706.498,1332.34 707.314,1115.74 
  708.13,1033.59 708.946,1126.95 709.762,1337.94 710.578,1341.67 711.394,1341.67 712.209,1016.78 713.025,615.336 713.841,708.696 714.657,738.571 715.473,628.407 
  716.289,518.242 717.105,656.414 717.921,703.094 718.737,740.438 719.553,727.368 720.369,716.164 721.185,742.305 722,630.274 722.816,579.86 723.632,505.172 
  724.448,708.696 725.264,760.977 726.08,1334.2 726.896,1337.94 727.712,1026.12 728.528,1138.15 729.344,1339.81 730.16,1341.67 730.975,1341.67 731.791,1041.06 
  732.607,645.211 733.423,721.766 734.239,746.039 735.055,678.821 735.871,555.586 736.687,641.477 737.503,703.094 738.319,714.297 739.135,704.961 739.951,690.024 
  740.766,714.297 741.582,675.086 742.398,656.414 743.214,559.321 744.03,645.211 744.846,805.79 745.662,1332.34 746.478,1281.92 747.294,1011.18 748.11,1218.44 
  748.926,1339.81 749.741,1337.94 750.557,1339.81 751.373,1181.09 752.189,731.102 753.005,658.282 753.821,703.094 754.637,611.602 755.453,521.977 756.269,572.391 
  757.085,690.024 757.901,731.102 758.716,682.555 759.532,772.18 760.348,710.563 761.164,678.821 761.98,572.391 762.796,602.266 763.612,663.883 764.428,783.383 
  765.244,1330.47 766.06,1125.08 766.876,1009.31 767.692,1128.81 768.507,1339.81 769.323,1339.81 770.139,1339.81 770.955,1082.13 771.771,734.836 772.587,723.633 
  773.403,701.227 774.219,639.61 775.035,523.844 775.851,641.477 776.667,727.368 777.482,714.297 778.298,676.954 779.114,716.164 779.93,740.438 780.746,686.289 
  781.562,564.922 782.378,620.938 783.194,669.485 784.01,1168.02 784.826,1285.66 785.642,1018.65 786.457,1059.73 787.273,1156.82 788.089,1337.94 788.905,1339.81 
  789.721,1339.81 790.537,1063.46 791.353,716.164 792.169,654.547 792.985,684.422 793.801,609.735 794.617,486.5 795.433,482.766 796.248,637.743 797.064,628.407 
  797.88,617.203 798.696,568.657 799.512,647.078 800.328,551.852 801.144,665.75 801.96,622.805 802.776,1130.68 803.592,1328.6 804.408,1330.47 805.223,1336.07 
  806.039,1033.59 806.855,1020.52 807.671,1337.94 808.487,1337.94 809.303,1339.81 810.119,1337.94 810.935,1151.22 811.751,675.086 812.567,592.93 813.383,381.938 
  814.199,329.656 815.014,561.188 815.83,579.86 816.646,619.071 817.462,540.649 818.278,544.383 819.094,613.469 819.91,889.813 820.726,1080.27 821.542,1326.74 
  822.358,1330.47 823.174,1328.6 823.989,1332.34 824.805,1248.31 825.621,1027.99 826.437,1050.39 827.253,1339.81 828.069,1337.94 828.885,1341.67 829.701,1337.94 
  830.517,1336.07 831.333,1326.74 832.149,787.118 832.964,594.797 833.78,656.414 834.596,667.618 835.412,718.032 836.228,622.805 837.044,533.18 837.86,548.117 
  838.676,645.211 839.492,962.633 840.308,1257.65 841.124,1330.47 841.94,1332.34 842.755,1330.47 843.571,1332.34 844.387,1188.56 845.203,1029.85 846.019,1097.07 
  846.835,1341.67 847.651,1339.81 848.467,1341.67 849.283,1024.25 850.099,639.61 850.915,712.43 851.73,729.235 852.546,583.594 853.362,480.899 854.178,671.352 
  854.994,710.563 855.81,747.907 856.626,647.078 857.442,671.352 858.258,706.829 859.074,669.485 859.89,555.586 860.706,576.125 861.521,690.024 862.337,835.665 
  863.153,1328.6 863.969,1257.65 864.785,1095.2 865.601,1149.35 866.417,1330.47 867.233,1332.34 868.049,1330.47 868.865,1078.4 869.681,678.821 870.496,731.102 
  871.312,660.149 872.128,542.516 872.944,557.453 873.76,669.485 874.576,688.157 875.392,688.157 876.208,747.907 877.024,716.164 877.84,714.297 878.656,701.227 
  879.471,613.469 880.287,663.883 881.103,725.5 881.919,828.196 882.735,1330.47 883.551,1337.94 884.367,1253.91 885.183,1339.81 885.999,1154.95 886.815,1009.31 
  887.631,1274.45 888.447,1065.33 889.262,652.68 890.078,738.571 890.894,708.696 891.71,622.805 892.526,533.18 893.342,615.336 894.158,658.282 894.974,662.016 
  895.79,592.93 896.606,585.461 897.422,684.422 898.237,654.547 899.053,559.321 899.869,570.524 900.685,686.289 901.501,865.54 902.317,1334.2 903.133,1126.95 
  903.949,986.907 904.765,1048.52 905.581,1337.94 906.397,1341.67 907.212,1341.67 908.028,1026.12 908.844,607.868 909.66,606 910.476,665.75 911.292,710.563 
  912.108,611.602 912.924,650.813 913.74,676.954 914.556,712.43 915.372,718.032 916.188,682.555 917.003,699.36 917.819,727.368 918.635,613.469 919.451,688.157 
  920.267,691.891 921.083,1164.29 921.899,1334.2 922.715,1140.02 923.531,1057.86 924.347,1014.91 925.163,1046.66 925.978,1048.52 926.794,1046.66 927.61,777.782 
  928.426,617.203 929.242,706.829 930.058,751.641 930.874,598.532 931.69,568.657 932.506,652.68 933.322,704.961 934.138,736.704 934.954,719.899 935.769,626.539 
  936.585,690.024 937.401,669.485 938.217,697.493 939.033,693.758 939.849,1128.81 940.665,1330.47 941.481,1332.34 942.297,1339.81 943.113,1018.65 943.929,1113.88 
  944.744,1341.67 945.56,1341.67 946.376,1341.67 947.192,1341.67 948.008,971.969 948.824,587.328 949.64,581.727 950.456,585.461 951.272,585.461 952.088,660.149 
  952.904,721.766 953.719,740.438 954.535,719.899 955.351,656.414 956.167,660.149 956.983,899.149 957.799,1235.24 958.615,1324.87 959.431,1328.6 960.247,1324.87 
  961.063,1326.74 961.879,1300.59 962.695,1014.91 963.51,1126.95 964.326,1337.94 965.142,1336.07 965.958,1337.94 966.774,1334.2 967.59,1332.34 968.406,1328.6 
  969.222,704.961 970.038,574.258 970.854,609.735 971.67,742.305 972.485,729.235 973.301,727.368 974.117,718.032 974.933,639.61 975.749,706.829 976.565,977.571 
  977.381,1255.78 978.197,1332.34 979.013,1332.34 979.829,1332.34 980.645,1330.47 981.461,1210.97 982.276,1014.91 983.092,1141.88 983.908,1341.67 984.724,1341.67 
  985.54,1341.67 986.356,1011.18 987.172,587.328 987.988,635.875 988.804,742.305 989.62,654.547 990.436,510.774 991.251,663.883 992.067,688.157 992.883,699.36 
  993.699,615.336 994.515,630.274 995.331,706.829 996.147,675.086 996.963,600.399 997.779,505.172 998.595,667.618 999.411,843.133 1000.23,1330.47 1001.04,1100.81 
  1001.86,1013.05 1002.67,1229.64 1003.49,1337.94 1004.31,1339.81 1005.12,1339.81 1005.94,1100.81 1006.75,708.696 1007.57,663.883 1008.39,740.438 1009.2,628.407 
  1010.02,579.86 1010.83,675.086 1011.65,660.149 1012.47,684.422 1013.28,729.235 1014.1,686.289 1014.91,703.094 1015.73,701.227 1016.54,609.735 1017.36,596.664 
  1018.18,626.539 1018.99,831.93 1019.81,1332.34 1020.62,1186.7 1021.44,1009.31 1022.26,1177.36 1023.07,1339.81 1023.89,1339.81 1024.7,1337.94 1025.52,1166.16 
  1026.34,729.235 1027.15,658.282 1027.97,753.508 1028.78,669.485 1029.6,643.344 1030.42,620.938 1031.23,686.289 1032.05,682.555 1032.86,641.477 1033.68,624.672 
  1034.49,699.36 1035.31,719.899 1036.13,585.461 1036.94,579.86 1037.76,699.36 1038.57,858.071 1039.39,1332.34 1040.21,1289.39 1041.02,1024.25 1041.84,1110.14 
  1042.65,1339.81 1043.47,1337.94 1044.29,1341.67 1045.1,1080.27 1045.92,704.961 1046.73,744.172 1047.55,727.368 1048.37,648.946 1049.18,551.852 1050,641.477 
  1050.81,643.344 1051.63,719.899 1052.44,684.422 1053.26,729.235 1054.08,731.102 1054.89,678.821 1055.71,617.203 1056.52,660.149 1057.34,719.899 1058.16,1110.14 
  1058.97,1330.47 1059.79,1203.5 1060.6,1087.74 1061.42,1188.56 1062.24,1339.81 1063.05,1339.81 1063.87,1341.67 1064.68,1059.73 1065.5,626.539 1066.32,714.297 
  1067.13,658.282 1067.95,645.211 1068.76,572.391 1069.58,577.993 1070.39,703.094 1071.21,714.297 1072.03,632.141 1072.84,611.602 1073.66,706.829 1074.47,697.493 
  1075.29,650.813 1076.11,716.164 1076.92,1166.16 1077.74,1328.6 1078.55,1332.34 1079.37,1334.2 1080.19,1091.47 1081,1063.46 1081.82,1337.94 1082.63,1337.94 
  1083.45,1337.94 1084.27,1337.94 1085.08,1059.73 1085.9,671.352 1086.71,622.805 1087.53,493.969 1088.34,441.688 1089.16,667.618 1089.98,634.008 1090.79,667.618 
  1091.61,568.657 1092.42,574.258 1093.24,628.407 1094.06,878.61 1094.87,1227.77 1095.69,1330.47 1096.5,1330.47 1097.32,1330.47 1098.14,1332.34 1098.95,1336.07 
  1099.77,1257.65 1100.58,1336.07 1101.4,1339.81 1102.22,1054.13 1103.03,1173.63 1103.85,1336.07 1104.66,1332.34 1105.48,1330.47 1106.3,845.001 1107.11,611.602 
  1107.93,609.735 1108.74,695.625 1109.56,654.547 1110.37,716.164 1111.19,634.008 1112.01,589.196 1112.82,656.414 1113.64,973.837 1114.45,1257.65 1115.27,1332.34 
  1116.09,1330.47 1116.9,1328.6 1117.72,1332.34 1118.53,1117.61 1119.35,1029.85 1120.17,1210.97 1120.98,1341.67 1121.8,1339.81 1122.61,1339.81 1123.43,1179.23 
  1124.25,675.086 1125.06,682.555 1125.88,742.305 1126.69,516.375 1127.51,437.953 1128.32,579.86 1129.14,676.954 1129.96,766.579 1130.77,647.078 1131.59,686.289 
  1132.4,749.774 1133.22,652.68 1134.04,493.969 1134.85,436.086 1135.67,688.157 1136.48,878.61 1137.3,1321.13 1138.12,1304.33 1138.93,1029.85 1139.75,1171.76 
  1140.56,1337.94 1141.38,1339.81 1142.2,1339.81 1143.01,1069.06 1143.83,620.938 1144.64,695.625 1145.46,654.547 1146.27,598.532 1147.09,594.797 1147.91,678.821 
  1148.72,770.313 1149.54,759.11 1150.35,747.907 1151.17,721.766 1151.99,802.055 1152.8,701.227 1153.62,619.071 1154.43,555.586 1155.25,656.414 1156.07,927.157 
  1156.88,1324.87 1157.7,1323 1158.51,1035.45 1159.33,1123.21 1160.15,1324.87 1160.96,1323 1161.78,1324.87 1162.59,1113.88 1163.41,641.477 1164.22,577.993 
  1165.04,716.164 1165.86,602.266 1166.67,544.383 1167.49,624.672 1168.3,738.571 1169.12,792.719 1169.94,828.196 1170.75,785.25 1171.57,777.782 1172.38,619.071 
  1173.2,460.36 1174.02,516.375 1174.83,607.868 1175.65,869.274 1176.46,1323 1177.28,1330.47 1178.1,1027.99 1178.91,1014.91 1179.73,1337.94 1180.54,1337.94 
  1181.36,1339.81 1182.17,1231.51 1182.99,740.438 1183.81,665.75 1184.62,676.954 1185.44,449.156 1186.25,344.594 1187.07,452.891 1187.89,598.532 1188.7,615.336 
  1189.52,548.117 1190.33,622.805 1191.15,656.414 1191.97,518.242 1192.78,451.024 1193.6,521.977 1194.41,626.539 1195.23,1149.35 1196.05,1330.47 1196.86,1035.45 
  1197.68,1089.6 1198.49,1128.81 1199.31,1339.81 1200.12,1337.94 1200.94,1339.81 1201.76,1188.56 1202.57,660.149 1203.39,650.813 1204.2,738.571 1205.02,516.375 
  1205.84,417.414 1206.65,503.305 1207.47,676.954 1208.28,712.43 1209.1,701.227 1209.92,678.821 1210.73,725.5 1211.55,658.282 1212.36,652.68 1213.18,701.227 
  1214,1087.74 1214.81,1328.6 1215.63,1328.6 1216.44,1337.94 1217.26,1253.91 1218.08,1339.81 1218.89,1224.04 1219.71,1018.65 1220.52,1162.42 1221.34,1330.47 
  1222.15,1084 1222.97,669.485 1223.79,540.649 1224.6,497.703 1225.42,499.571 1226.23,643.344 1227.05,794.586 1227.87,759.11 1228.68,710.563 1229.5,693.758 
  1230.31,628.407 1231.13,792.719 1231.95,1196.03 1232.76,1326.74 1233.58,1324.87 1234.39,1326.74 1235.21,1326.74 1236.03,1156.82 1236.84,1029.85 1237.66,1196.03 
  1238.47,1336.07 1239.29,1336.07 1240.1,1334.2 1240.92,1332.34 1241.74,1317.4 1242.55,1261.38 1243.37,680.688 1244.18,624.672 1245,637.743 1245.82,749.774 
  1246.63,833.797 1247.45,798.321 1248.26,742.305 1249.08,766.579 1249.9,779.649 1250.71,981.305 1251.53,1253.91 1252.34,1326.74 1253.16,1328.6 1253.98,1326.74 
  1254.79,1326.74 1255.61,1334.2 1256.42,1014.91 1257.24,1212.84 1258.05,1334.2 1258.87,1334.2 1259.69,1336.07 1260.5,1134.41 1261.32,686.289 1262.13,764.711 
  1262.95,807.657 1263.77,620.938 1264.58,568.657 1265.4,718.032 1266.21,790.852 1267.03,843.133 1267.85,837.532 1268.66,839.399 1269.48,826.329 1270.29,732.969 
  1271.11,527.578 1271.93,518.242 1272.74,678.821 1273.56,902.883 1274.37,1326.74 1275.19,1291.26 1276,1035.45 1276.82,1091.47 1277.64,1328.6 1278.45,1326.74 
  1279.27,1326.74 1280.08,1095.2 1280.9,688.157 1281.72,701.227 1282.53,768.446 1283.35,598.532 1284.16,581.727 1284.98,630.274 1285.8,766.579 1286.61,703.094 
  1287.43,697.493 1288.24,693.758 1289.06,706.829 1289.88,637.743 1290.69,568.657 1291.51,508.907 1292.32,619.071 1293.14,915.954 1293.95,1326.74 1294.77,1330.47 
  1295.59,1035.45 1296.4,1035.45 1297.22,1336.07 1298.03,1332.34 1298.85,1334.2 1299.67,1134.41 1300.48,686.289 1301.3,731.102 1302.11,775.915 1302.93,594.797 
  1303.75,533.18 1304.56,585.461 1305.38,719.899 1306.19,718.032 1307.01,706.829 1307.83,701.227 1308.64,753.508 1309.46,647.078 1310.27,497.703 1311.09,591.063 
  1311.9,755.375 1312.72,968.235 1313.54,1330.47 1314.35,1253.91 1315.17,1031.72 1315.98,1026.12 1316.8,1298.73 1317.62,1334.2 1318.43,1336.07 1319.25,1117.61 
  1320.06,690.024 1320.88,734.836 1321.7,807.657 1322.51,620.938 1323.33,557.453 1324.14,648.946 1324.96,719.899 1325.78,760.977 1326.59,779.649 1327.41,716.164 
  1328.22,774.047 1329.04,624.672 1329.85,594.797 1330.67,701.227 1331.49,755.375 1332.3,1153.09 1333.12,1330.47 1333.93,1140.02 1334.75,1018.65 1335.57,1255.78 
  1336.38,1336.07 1337.2,1336.07 1338.01,1334.2 1338.83,1087.74 1339.65,663.883 1340.46,671.352 1341.28,822.594 1342.09,624.672 1342.91,471.563 1343.73,634.008 
  1344.54,723.633 1345.36,762.844 1346.17,732.969 1346.99,708.696 1347.81,727.368 1348.62,662.016 1349.44,663.883 1350.25,725.5 1351.07,1128.81 1351.88,1326.74 
  1352.7,1328.6 1353.52,1242.71 1354.33,1005.58 1355.15,1156.82 1355.96,1334.2 1356.78,1334.2 1357.6,1336.07 1358.41,1336.07 1359.23,1110.14 1360.04,658.282 
  1360.86,553.719 1361.68,514.508 1362.49,568.657 1363.31,676.954 1364.12,774.047 1364.94,796.454 1365.76,706.829 1366.57,747.907 1367.39,658.282 1368.2,753.508 
  1369.02,1218.44 1369.83,1326.74 1370.65,1326.74 1371.47,1328.6 1372.28,1332.34 1373.1,1149.35 1373.91,1027.99 1374.73,1128.81 1375.55,1336.07 1376.36,1336.07 
  1377.18,1334.2 1377.99,1336.07 1378.81,1313.66 1379.63,1248.31 1380.44,718.032 1381.26,576.125 1382.07,602.266 1382.89,749.774 1383.71,800.188 1384.52,807.657 
  1385.34,755.375 1386.15,736.704 1386.97,822.594 1387.78,973.837 1388.6,1252.05 1389.42,1326.74 1390.23,1328.6 1391.05,1326.74 1391.86,1332.34 1392.68,1294.99 
  1393.5,1009.31 1394.31,1117.61 1395.13,1334.2 1395.94,1334.2 1396.76,1336.07 1397.58,1145.62 1398.39,652.68 1399.21,755.375 1400.02,800.188 1400.84,568.657 
  1401.66,505.172 1402.47,665.75 1403.29,744.172 1404.1,777.782 1404.92,742.305 1405.73,736.704 1406.55,747.907 1407.37,615.336 1408.18,449.156 1409,501.438 
  1409.81,723.633 1410.63,869.274 1411.45,1313.66 1412.26,1013.05 1413.08,1238.98 1413.89,1334.2 1414.71,1334.2 1415.53,1336.07 1416.34,1334.2 1417.16,1171.76 
  1417.97,710.563 1418.79,686.289 1419.61,725.5 1420.42,585.461 1421.24,561.188 1422.05,613.469 1422.87,716.164 1423.68,751.641 1424.5,712.43 1425.32,772.18 
  1426.13,701.227 1426.95,609.735 1427.76,490.235 1428.58,436.086 1429.4,559.321 1430.21,925.29 1431.03,1328.6 1431.84,1334.2 1432.66,1041.06 1433.48,1044.79 
  1434.29,1334.2 1435.11,1334.2 1435.92,1334.2 1436.74,1244.58 1437.56,693.758 1438.37,701.227 1439.19,749.774 1440,548.117 1440.82,503.305 1441.63,505.172 
  1442.45,617.203 1443.27,609.735 1444.08,611.602 1444.9,630.274 1445.71,611.602 1446.53,507.039 1447.35,312.852 1448.16,404.344 1448.98,596.664 1449.79,792.719 
  1450.61,1328.6 1451.43,1110.14 1452.24,999.977 1453.06,1102.67 1453.87,1330.47 1454.69,1334.2 1455.51,1332.34 1456.32,1164.29 1457.14,710.563 1457.95,544.383 
  1458.77,675.086 1459.59,486.5 1460.4,430.485 1461.22,488.367 1462.03,673.219 1462.85,721.766 1463.66,731.102 1464.48,729.235 1465.3,712.43 1466.11,561.188 
  1466.93,488.367 1467.74,583.594 1468.56,663.883 1469.38,1156.82 1470.19,1330.47 1471.01,1190.43 1471.82,1093.34 1472.64,1149.35 1473.46,1337.94 1474.27,1337.94 
  1475.09,1339.81 1475.9,1199.77 1476.72,583.594 1477.54,624.672 1478.35,762.844 1479.17,611.602 1479.98,518.242 1480.8,611.602 1481.61,755.375 1482.43,813.258 
  1483.25,760.977 1484.06,779.649 1484.88,751.641 1485.69,678.821 1486.51,648.946 1487.33,682.555 1488.14,1084 1488.96,1330.47 1489.77,1334.2 1490.59,1339.81 
  1491.41,1115.74 1492.22,1104.54 1493.04,1337.94 1493.85,1339.81 1494.67,1339.81 1495.49,1337.94 1496.3,1250.18 1497.12,682.555 1497.93,482.766 1498.75,301.649 
  1499.56,305.383 1500.38,577.993 1501.2,676.954 1502.01,704.961 1502.83,716.164 1503.64,652.68 1504.46,549.985 1505.28,662.016 1506.09,1196.03 1506.91,1334.2 
  1507.72,1330.47 1508.54,1330.47 1509.36,1334.2 1510.17,1339.81 1510.99,1102.67 1511.8,1009.31 1512.62,1100.81 1513.44,1337.94 1514.25,1337.94 1515.07,1339.81 
  1515.88,1317.4 1516.7,1244.58 1517.51,699.36 1518.33,510.774 1519.15,533.18 1519.96,643.344 1520.78,658.282 1521.59,678.821 1522.41,690.024 1523.23,647.078 
  1524.04,684.422 1524.86,951.43 1525.67,1255.78 1526.49,1330.47 1527.31,1332.34 1528.12,1330.47 1528.94,1336.07 1529.75,1253.91 1530.57,1007.45 1531.39,1046.66 
  1532.2,1339.81 1533.02,1339.81 1533.83,1339.81 1534.65,1233.38 1535.46,723.633 1536.28,753.508 1537.1,753.508 1537.91,495.836 1538.73,437.953 1539.54,656.414 
  1540.36,650.813 1541.18,695.625 1541.99,682.555 1542.81,727.368 1543.62,658.282 1544.44,538.782 1545.26,443.555 1546.07,400.61 1546.89,607.868 1547.7,880.477 
  1548.52,1263.25 1549.34,1026.12 1550.15,1104.54 1550.97,1339.81 1551.78,1341.67 1552.6,1339.81 1553.41,1339.81 1554.23,1126.95 1555.05,732.969 1555.86,667.618 
  1556.68,755.375 1557.49,589.196 1558.31,600.399 1559.13,626.539 1559.94,753.508 1560.76,811.391 1561.57,729.235 1562.39,740.438 1563.21,727.368 1564.02,663.883 
  1564.84,546.25 1565.65,540.649 1566.47,656.414 1567.29,921.555 1568.1,1334.2 1568.92,1194.16 1569.73,1067.2 1570.55,1069.06 1571.36,1339.81 1572.18,1339.81 
  1573,1339.81 1573.81,1130.68 1574.63,626.539 1575.44,648.946 1576.26,802.055 1577.08,606 1577.89,521.977 1578.71,579.86 1579.52,747.907 1580.34,731.102 
  1581.16,676.954 1581.97,721.766 1582.79,710.563 1583.6,704.961 1584.42,484.633 1585.24,551.852 1586.05,706.829 1586.87,901.016 1587.68,1326.74 1588.5,1334.2 
  1589.32,1014.91 1590.13,1072.8 1590.95,1334.2 1591.76,1334.2 1592.58,1334.2 1593.39,1130.68 1594.21,708.696 1595.03,759.11 1595.84,762.844 1596.66,579.86 
  1597.47,535.047 1598.29,529.446 1599.11,774.047 1599.92,785.25 1600.74,777.782 1601.55,800.188 1602.37,805.79 1603.19,637.743 1604,639.61 1604.82,645.211 
  1605.63,755.375 1606.45,1162.42 1607.27,1332.34 1608.08,1112.01 1608.9,1106.41 1609.71,1278.19 1610.53,1337.94 1611.34,1337.94 1612.16,1337.94 1612.98,1160.56 
  1613.79,643.344 1614.61,617.203 1615.42,729.235 1616.24,533.18 1617.06,380.07 1617.87,523.844 1618.69,619.071 1619.5,652.68 1620.32,663.883 1621.14,704.961 
  1621.95,710.563 1622.77,680.688 1623.58,734.836 1624.4,729.235 1625.22,1132.55 1626.03,1330.47 1626.85,1334.2 1627.66,1341.67 1628.48,1272.59 1629.29,1339.81 
  1630.11,1216.57 1630.93,1016.78 1631.74,1339.81 1632.56,1341.67 1633.37,1102.67 1634.19,662.016 1635.01,497.703 1635.82,451.024 1636.64,415.547 1637.45,634.008 
  1638.27,676.954 1639.09,701.227 1639.9,688.157 1640.72,693.758 1641.53,620.938 1642.35,803.922 1643.17,1156.82 1643.98,1328.6 1644.8,1332.34 1645.61,1330.47 
  1646.43,1334.2 1647.24,1339.81 1648.06,1024.25 1648.88,1164.29 1649.69,1339.81 1650.51,1341.67 1651.32,1339.81 1652.14,1339.81 1652.96,1319.27 1653.77,1259.52 
  1654.59,757.243 1655.4,566.789 1656.22,574.258 1657.04,667.618 1657.85,775.915 1658.67,718.032 1659.48,701.227 1660.3,721.766 1661.12,732.969 1661.93,949.563 
  1662.75,1255.78 1663.56,1330.47 1664.38,1328.6 1665.19,1330.47 1666.01,1334.2 1666.83,1199.77 1667.64,1067.2 1668.46,1097.07 1669.27,1337.94 1670.09,1339.81 
  1670.91,1336.07 1671.72,1244.58 1672.54,721.766 1673.35,719.899 1674.17,740.438 1674.99,548.117 1675.8,421.149 1676.62,527.578 1677.43,587.328 1678.25,647.078 
  1679.07,626.539 1679.88,639.61 1680.7,656.414 1681.51,508.907 1682.33,329.656 1683.14,320.32 1683.96,592.93 1684.78,822.594 1685.59,1328.6 1686.41,1332.34 
  1687.22,1065.33 1688.04,1126.95 1688.86,1339.81 1689.67,1336.07 1690.49,1306.2 1691.3,1242.71 1692.12,660.149 1692.94,639.61 1693.75,643.344 1694.57,505.172 
  1695.38,521.977 1696.2,596.664 1697.02,708.696 1697.83,760.977 1698.65,762.844 1699.46,774.047 1700.28,732.969 1701.1,628.407 1701.91,484.633 1702.73,419.281 
  1703.54,589.196 1704.36,891.68 1705.17,1334.2 1705.99,1336.07 1706.81,1059.73 1707.62,1055.99 1708.44,1336.07 1709.25,1336.07 1710.07,1339.81 1710.89,1224.04 
  1711.7,727.368 1712.52,708.696 1713.33,777.782 1714.15,594.797 1714.97,467.828 1715.78,477.164 1716.6,719.899 1717.41,671.352 1718.23,660.149 1719.05,706.829 
  1719.86,678.821 1720.68,574.258 1721.49,465.961 1722.31,546.25 1723.12,691.891 1723.94,858.071 1724.76,1278.19 1725.57,1287.52 1726.39,964.501 1727.2,968.235 
  1728.02,1289.39 1728.84,1281.92 1729.65,1289.39 1730.47,1063.46 1731.28,686.289 1732.1,714.297 1732.92,759.11 1733.73,555.586 1734.55,510.774 1735.36,510.774 
  1736.18,643.344 1737,691.891 1737.81,686.289 1738.63,695.625 1739.44,680.688 1740.26,536.914 1741.07,516.375 1741.89,604.133 1742.71,691.891 1743.52,1123.21 
  1744.34,1207.24 1745.15,960.766 1745.97,1052.26 1746.79,1257.65 1747.6,1283.79 1748.42,1289.39 1749.23,1287.52 1750.05,994.376 1750.87,548.117 1751.68,658.282 
  1752.5,762.844 1753.31,533.18 1754.13,473.43 1754.95,553.719 1755.76,704.961 1756.58,725.5 1757.39,736.704 1758.21,757.243 1759.02,755.375 1759.84,695.625 
  1760.66,665.75 1761.47,701.227 1762.29,1041.06 1763.1,1270.72 1763.92,1272.59 1764.74,1276.32 1765.55,1199.77 1766.37,1276.32 1767.18,1115.74 1768,1014.91 
  1768.82,1276.32 1769.63,1281.92 1770.45,1067.2 1771.26,579.86 1772.08,501.438 1772.9,451.024 1773.71,421.149 1774.53,579.86 1775.34,671.352 1776.16,669.485 
  1776.97,654.547 1777.79,665.75 1778.61,576.125 1779.42,742.305 1780.24,1169.89 1781.05,1265.12 1781.87,1270.72 1782.69,1270.72 1783.5,1268.85 1784.32,1261.38 
  1785.13,953.297 1785.95,1123.21 1786.77,1283.79 1787.58,1280.06 1788.4,1283.79 1789.21,1285.66 1790.03,1259.52 1790.85,1175.49 1791.66,746.039 1792.48,561.188 
  1793.29,598.532 1794.11,663.883 1794.92,734.836 1795.74,695.625 1796.56,695.625 1797.37,723.633 1798.19,744.172 1799,930.891 1799.82,1192.3 1800.64,1278.19 
  1801.45,1268.85 1802.27,1278.19 1803.08,1276.32 1803.9,1203.5 1804.72,1033.59 1805.53,1199.77 1806.35,1283.79 1807.16,1278.19 1807.98,1283.79 1808.8,1149.35 
  1809.61,680.688 1810.43,721.766 1811.24,710.563 1812.06,464.094 1812.87,355.797 1813.69,570.524 1814.51,650.813 1815.32,643.344 1816.14,643.344 1816.95,688.157 
  1817.77,678.821 1818.59,549.985 1819.4,436.086 1820.22,391.274 1821.03,609.735 1821.85,805.79 1822.67,1263.25 1823.48,1265.12 1824.3,1263.25 1825.11,1270.72 
  1825.93,1186.7 1826.75,936.493 1827.56,1169.89 1828.38,1171.76 1829.19,639.61 1830.01,606 1830.83,682.555 1831.64,482.766 1832.46,357.664 1833.27,456.625 
  1834.09,574.258 1834.9,594.797 1835.72,624.672 1836.54,652.68 1837.35,648.946 1838.17,583.594 1838.98,465.961 1839.8,441.688 1840.62,581.727 1841.43,873.008 
  1842.25,1274.45 1843.06,1278.19 1843.88,990.641 1844.7,964.501 1845.51,1281.92 1846.33,1283.79 1847.14,1281.92 1847.96,1181.09 1848.78,676.954 1849.59,637.743 
  1850.41,704.961 1851.22,464.094 1852.04,406.211 1852.85,484.633 1853.67,654.547 1854.49,673.219 1855.3,673.219 1856.12,693.758 1856.93,697.493 1857.75,557.453 
  1858.57,451.024 1859.38,473.43 1860.2,630.274 1861.01,856.204 1861.83,1276.32 1862.65,1280.06 1863.46,945.829 1864.28,975.704 1865.09,1280.06 1865.91,1281.92 
  1866.73,1281.92 1867.54,1175.49 1868.36,652.68 1869.17,652.68 1869.99,697.493 1870.8,473.43 1871.62,449.156 1872.44,520.11 1873.25,667.618 1874.07,701.227 
  1874.88,699.36 1875.7,725.5 1876.52,719.899 1877.33,576.125 1878.15,490.235 1878.96,566.789 1879.78,654.547 1880.6,1104.54 1881.41,1186.7 1882.23,951.43 
  1883.04,1046.66 1883.86,1238.98 1884.68,1287.52 1885.49,1276.32 1886.31,1280.06 1887.12,1119.48 1887.94,563.055 1888.75,544.383 1889.57,656.414 1890.39,428.617 
  1891.2,316.586 1892.02,415.547 1892.83,577.993 1893.65,634.008 1894.47,643.344 1895.28,650.813 1896.1,652.68 1896.91,557.453 1897.73,542.516 1898.55,568.657 
  1899.36,1039.19 1900.18,1270.72 1900.99,1274.45 1901.81,1278.19 1902.63,1164.29 1903.44,947.696 1904.26,1196.03 1905.07,1280.06 1905.89,1285.66 1906.7,1280.06 
  1907.52,1186.7 1908.34,630.274 1909.15,415.547 1909.97,266.172 1910.78,240.031 1911.6,493.969 1912.42,598.532 1913.23,620.938 1914.05,585.461 1914.86,596.664 
  1915.68,471.563 1916.5,680.688 1917.31,1164.29 1918.13,1272.59 1918.94,1268.85 1919.76,1270.72 1920.58,1274.45 1921.39,1274.45 1922.21,951.43 1923.02,1005.58 
  1923.84,1281.92 1924.65,1278.19 1925.47,1281.92 1926.29,1281.92 1927.1,1259.52 1927.92,1182.96 1928.73,579.86 1929.55,340.86 1930.37,378.203 1931.18,551.852 
  1932,596.664 1932.81,585.461 1933.63,594.797 1934.45,641.477 1935.26,660.149 1936.08,897.282 1936.89,1192.3 1937.71,1268.85 1938.53,1274.45 1939.34,1266.99 
  1940.16,1283.79 1940.97,1033.59 1941.79,1044.79 1942.61,1280.06 1943.42,1280.06 1944.24,1281.92 1945.05,1281.92 1945.87,1184.83 1946.68,703.094 1947.5,648.946 
  1948.32,613.469 1949.13,376.336 1949.95,178.414 1950.76,385.672 1951.58,508.907 1952.4,544.383 1953.21,525.711 1954.03,516.375 1954.84,546.25 1955.66,363.266 
  1956.48,202.688 1957.29,146.672 1958.11,507.039 1958.92,747.907 1959.74,1274.45 1960.56,1270.72 1961.37,1067.2 1962.19,947.696 1963,1261.38 1963.82,1276.32 
  1964.63,1280.06 1965.45,1145.62 1966.27,527.578 1967.08,441.688 1967.9,546.25 1968.71,359.531 1969.53,350.195 1970.35,350.195 1971.16,499.571 1971.98,536.914 
  1972.79,507.039 1973.61,548.117 1974.43,559.321 1975.24,486.5 1976.06,352.063 1976.87,309.117 1977.69,421.149 1978.51,747.907 1979.32,1278.19 1980.14,1280.06 
  1980.95,1082.13 1981.77,947.696 1982.58,1285.66 1983.4,1281.92 1984.22,1280.06 1985.03,1168.02 1985.85,704.961 1986.66,579.86 1987.48,596.664 1988.3,409.946 
  1989.11,402.477 1989.93,437.953 1990.74,635.875 1991.56,684.422 1992.38,686.289 1993.19,665.75 1994.01,647.078 1994.82,542.516 1995.64,454.758 1996.46,477.164 
  1997.27,667.618 1998.09,897.282 1998.9,1287.52 1999.72,1285.66 2000.53,1024.25 2001.35,951.43 2002.17,1192.3 2002.98,1283.79 2003.8,1289.39 2004.61,1070.93 
  2005.43,632.141 2006.25,660.149 2007.06,746.039 2007.88,508.907 2008.69,510.774 2009.51,520.11 2010.33,673.219 2011.14,716.164 2011.96,719.899 2012.77,701.227 
  2013.59,723.633 2014.41,604.133 2015.22,606 2016.04,620.938 2016.85,686.289 2017.67,1110.14 2018.48,1201.63 2019.3,955.165 2020.12,1046.66 2020.93,1214.7 
  2021.75,1285.66 2022.56,1285.66 2023.38,1283.79 2024.2,1011.18 2025.01,628.407 2025.83,658.282 2026.64,766.579 2027.46,570.524 2028.28,464.094 2029.09,549.985 
  2029.91,671.352 2030.72,727.368 2031.54,749.774 2032.36,721.766 2033.17,719.899 2033.99,662.016 2034.8,602.266 2035.62,665.75 2036.43,1059.73 2037.25,1270.72 
  2038.07,1268.85 2038.88,1276.32 2039.7,1196.03 2040.51,949.563 2041.33,1162.42 2042.15,1278.19 2042.96,1278.19 2043.78,1276.32 2044.59,1177.36 2045.41,660.149 
  2046.23,445.422 2047.04,282.977 2047.86,359.531 2048.67,570.524 2049.49,691.891 2050.31,665.75 2051.12,727.368 2051.94,673.219 2052.75,615.336 2053.57,747.907 
  2054.38,1169.89 2055.2,1270.72 2056.02,1278.19 2056.83,1276.32 2057.65,1278.19 2058.46,1057.86 2059.28,966.368 2060.1,1281.92 2060.91,1285.66 2061.73,1280.06 
  2062.54,1283.79 2063.36,1265.12 2064.18,1224.04 2064.99,772.18 2065.81,577.993 2066.62,535.047 2067.44,647.078 2068.26,624.672 2069.07,663.883 2069.89,654.547 
  2070.7,650.813 2071.52,691.891 2072.34,873.008 2073.15,1177.36 2073.97,1274.45 2074.78,1272.59 2075.6,1278.19 2076.41,1276.32 2077.23,1250.18 2078.05,957.032 
  2078.86,964.501 2079.68,1270.72 2080.49,1283.79 2081.31,1283.79 2082.13,1177.36 2082.94,1050.39 2083.76,1063.46 2084.57,811.391 2085.39,525.711 2086.21,357.664 
  2087.02,535.047 2087.84,630.274 2088.65,650.813 2089.47,626.539 2090.29,635.875 2091.1,662.016 2091.92,620.938 2092.73,805.79 2093.55,914.086 2094.36,1024.25 
  2095.18,1138.15 2096,1270.72 2096.81,1285.66 2097.63,1041.06 2098.44,1024.25 2099.26,1274.45 2100.08,1287.52 2100.89,1278.19 2101.71,1177.36 2102.52,645.211 
  2103.34,617.203 2104.16,639.61 2104.97,409.946 2105.79,368.867 2106.6,342.727 2107.42,499.571 2108.24,540.649 2109.05,551.852 2109.87,520.11 2110.68,540.649 
  2111.5,480.899 2112.31,352.063 2113.13,197.086 2113.95,419.281 2114.76,757.243 2115.58,1272.59 2116.39,1280.06 2117.21,1059.73 2118.03,951.43 2118.84,1181.09 
  2119.66,1280.06 2120.47,1272.59 2121.29,1158.69 2122.11,647.078 2122.92,508.907 2123.74,570.524 2124.55,318.453 2125.37,193.352 2126.19,297.914 2127,443.555 
  2127.82,553.719 2128.63,548.117 2129.45,546.25 2130.26,538.782 2131.08,423.016 2131.9,204.555 2132.71,275.508 2133.53,538.782 2134.34,747.907 2135.16,1274.45 
  2135.98,1278.19 2136.79,1007.45 2137.61,958.899 2138.42,1197.9 2139.24,1278.19 2140.06,1281.92 2140.87,1168.02 2141.69,611.602 2142.5,523.844 2143.32,572.391 
  2144.14,400.61 2144.95,281.109 2145.77,376.336 2146.58,512.641 2147.4,577.993 2148.21,658.282 2149.03,675.086 2149.85,684.422 2150.66,535.047 2151.48,477.164 
  2152.29,508.907 2153.11,624.672 2153.93,1097.07 2154.74,1220.31 2155.56,958.899 2156.37,957.032 2157.19,1201.63 2158.01,1281.92 2158.82,1283.79 2159.64,1278.19 
  2160.45,1147.49 2161.27,598.532 2162.09,561.188 2162.9,699.36 2163.72,490.235 2164.53,385.672 2165.35,465.961 2166.16,615.336 2166.98,658.282 2167.8,639.61 
  2168.61,626.539 2169.43,622.805 2170.24,576.125 2171.06,572.391 2171.88,626.539 2172.69,1039.19 2173.51,1270.72 2174.32,1280.06 2175.14,1276.32 2175.96,1196.03 
  2176.77,947.696 2177.59,1210.97 2178.4,1285.66 2179.22,1276.32 2180.04,1281.92 2180.85,1184.83 2181.67,645.211 2182.48,424.883 2183.3,299.781 2184.12,310.985 
  2184.93,546.25 2185.75,652.68 2186.56,669.485 2187.38,654.547 2188.19,647.078 2189.01,510.774 2189.83,656.414 2190.64,1138.15 2191.46,1272.59 2192.27,1268.85 
  2193.09,1270.72 2193.91,1278.19 2194.72,1055.99 2195.54,955.165 2196.35,975.704 2197.17,985.04 2197.99,1022.38 2198.8,1283.79 2199.62,1280.06 2200.43,1255.78 
  2201.25,1190.43 2202.07,639.61 2202.88,441.688 2203.7,389.406 2204.51,551.852 2205.33,635.875 2206.14,620.938 2206.96,626.539 2207.78,615.336 2208.59,577.993 
  2209.41,858.071 2210.22,1188.56 2211.04,1276.32 2211.86,1270.72 2212.67,1274.45 2213.49,1278.19 2214.3,1214.7 2215.12,968.235 2215.94,1104.54 2216.75,1285.66 
  2217.57,1280.06 2218.38,1283.79 2219.2,1166.16 2220.02,632.141 2220.83,583.594 2221.65,596.664 2222.46,353.93 2223.28,290.445 2224.09,536.914 2224.91,596.664 
  2225.73,609.735 2226.54,643.344 2227.36,606 2228.17,630.274 2228.99,452.891 2229.81,256.836 2230.62,236.297 2231.44,527.578 2232.25,762.844 2233.07,986.907 
  2233.89,981.305 2234.7,977.571 2235.52,962.633 2236.33,1160.56 2237.15,1283.79 2237.97,1278.19 2238.78,1173.63 2239.6,566.789 2240.41,557.453 2241.23,585.461 
  2242.04,441.688 2242.86,391.274 2243.68,482.766 2244.49,594.797 2245.31,619.071 2246.12,591.063 2246.94,574.258 2247.76,559.321 2248.57,497.703 2249.39,374.469 
  2250.2,251.234 2251.02,419.281 2251.84,781.516 2252.65,1274.45 2253.47,1278.19 2254.28,1018.65 2255.1,934.626 2255.92,962.633 2256.73,977.571 2257.55,975.704 
  2258.36,809.524 2259.18,589.196 2259.99,535.047 2260.81,600.399 2261.63,370.735 2262.44,251.234 2263.26,350.195 2264.07,536.914 2264.89,536.914 2265.71,469.696 
  2266.52,510.774 2267.34,551.852 2268.15,383.805 2268.97,279.242 2269.79,350.195 2270.6,521.977 2271.42,721.766 2272.23,1278.19 2273.05,1276.32 2273.87,1048.52 
  2274.68,958.899 2275.5,1224.04 2276.31,1274.45 2277.13,1276.32 2277.94,1141.88 2278.76,568.657 2279.58,521.977 2280.39,488.367 2281.21,236.297 2282.02,85.0547 
  2282.84,157.875 2283.66,398.742 2284.47,445.422 2285.29,430.485 2286.1,465.961 2286.92,475.297 2287.74,284.844 2288.55,210.156 2289.37,340.86 2290.18,514.508 
  2291,1112.01 2291.82,1291.26 2292.63,999.977 2293.45,1026.12 
  "/>
</svg>
